HIERARCHY
ROOT Hips
{
    OFFSET 12.36759090423584 92.19189834594727 -18.226680755615234
    CHANNELS 6 Xposition Yposition Zposition Zrotation Xrotation Yrotation
    JOINT RightUpLeg
    {
        OFFSET -12.36759090423584 0.0 0.0
        CHANNELS 3 Zrotation Xrotation Yrotation
        JOINT RightLeg
        {
            OFFSET 0.0 -46.62519454956055 0.0
            CHANNELS 3 Zrotation Xrotation Yrotation
            JOINT RightFoot
            {
                OFFSET 0.0 -45.56670379638672 0.0
                CHANNELS 3 Zrotation Xrotation Yrotation
                End Site
                {
                    OFFSET 0.0 0.0 18.226680755615234
                }
            }
        }
    }
    JOINT LeftUpLeg
    {
        OFFSET 12.36759090423584 0.0 0.0
        CHANNELS 3 Zrotation Xrotation Yrotation
        JOINT LeftLeg
        {
            OFFSET 0.0 -46.62519454956055 0.0
            CHANNELS 3 Zrotation Xrotation Yrotation
            JOINT LeftFoot
            {
                OFFSET 0.0 -45.56670379638672 0.0
                CHANNELS 3 Zrotation Xrotation Yrotation
                End Site
                {
                    OFFSET 0.0 0.0 18.226680755615234
                }
            }
        }
    }
    JOINT Spine
    {
        OFFSET 0.0 24.183021545410156 0.0
        CHANNELS 3 Zrotation Xrotation Yrotation
        JOINT Spine3
        {
            OFFSET 0.0 25.689224243164062 0.0
            CHANNELS 3 Zrotation Xrotation Yrotation
            JOINT Neck
            {
                OFFSET 0.0 11.569782257080078 0.0
                CHANNELS 3 Zrotation Xrotation Yrotation
                End Site
                {
                    OFFSET 0.0 4.627912998199463 0.0
                }
            }
            JOINT LeftArm
            {
                OFFSET 13.408740997314453 0.0 0.0
                CHANNELS 3 Zrotation Xrotation Yrotation
                JOINT LeftForeArm
                {
                    OFFSET 29.427879333496094 0.0 0.0
                    CHANNELS 3 Zrotation Xrotation Yrotation
                    JOINT LeftHand
                    {
                        OFFSET 20.229333877563477 0.0 0.0
                        CHANNELS 3 Zrotation Xrotation Yrotation
                        End Site
                        {
                            OFFSET 8.091733932495117 0.0 0.0
                        }
                    }
                }
            }
            JOINT RightArm
            {
                OFFSET -13.408740997314453 0.0 0.0
                CHANNELS 3 Zrotation Xrotation Yrotation
                JOINT RightForeArm
                {
                    OFFSET -29.427879333496094 0.0 0.0
                    CHANNELS 3 Zrotation Xrotation Yrotation
                    JOINT RightHand
                    {
                        OFFSET -20.229333877563477 0.0 0.0
                        CHANNELS 3 Zrotation Xrotation Yrotation
                        End Site
                        {
                            OFFSET -8.091733932495117 0.0 0.0
                        }
                    }
                }
            }
        }
    }
}
MOTION
Frames: 8
Frame Time: 0.03333333333333333
1.4247734725358896e-05 98.71041107177734 -0.0010859519243240356 -2.7174442892669526 -11.228198802626688 -13.650413504968057 0.5228806914516675 20.551129436654026 -1.0696452067849174 -0.40858128951177414 8.238268448381628 -0.3494236946155165 0.0 0.0 -6.46050169672277e-16 -1.5791842988960707 19.73191350642819 -0.3277637871115993 -2.135665052580437 9.904834521147215 0.20934329335900267 1.987846675914698e-16 3.793200724886855e-33 2.1866313435061676e-15 1.837522101214404 24.846490452279713 -1.84060182979435 -1.9608498655368657e-08 -1.0544809768798432e-06 -1.6904758053298792 3.608385725784005 8.819710191693236 172.43102553170934 114.46343029804778 -40.18724034738199 -173.7839376160442 1.61381466487014e-06 -1.2912121660693683e-06 19.728868435337123 -9.541664044390549e-15 -3.1805546814635164e-15 -2.648343778830095e-31 -115.24208027720024 -25.63008755292103 172.49194684817928 -2.9521277379991874e-06 -2.0528692905770586e-06 -29.446789708978557 -1.2175560889977521e-15 0.0 0.0
2.644883352331817e-05 98.71035766601562 -0.0010755753610283136 -2.9939897768125125 -11.390653960618563 -13.761527382305038 0.47923556628801506 20.466423813748438 -0.9907833375631979 0.0035854066150262285 8.768193527970631 -0.4044284999776446 3.975693351829396e-16 -4.827710013492361e-33 -1.3914926731402886e-15 -1.616586215293165 19.663745667068984 -0.25676603614722876 -1.7847720918467842 10.582256893627024 0.19487592146629776 0.0 0.0 -4.969616689786746e-16 2.3431617219916507 25.15932736242252 -2.0057684123508603 -2.9811637059825597e-07 7.708197476753972e-07 -1.4867248412744325 3.3813201553478143 9.22212258032049 172.00958024032323 114.79631065603064 -41.23739603450931 -173.19316098225246 -6.373035636158425e-06 3.4840246732942936e-06 20.130915556841863 -9.54166404439055e-15 3.1805546814635168e-15 2.648343778830095e-31 -116.14060513217376 -27.02271032295721 171.7950850791192 -1.694744064900786e-06 3.173417733138575e-06 -29.112543061007358 6.3611093629270335e-15 0.0 0.0
3.0877119570504874e-05 98.7103042602539 -0.0010459076147526503 -3.2570627050718906 -11.435714294678796 -13.761468727411637 0.5867269447489131 20.401092509952793 -0.958836842444903 0.32153481234419 9.309992251212943 -0.4683315506822752 3.975693351829396e-16 8.620910738379216e-34 2.4848083448933725e-16 -1.3119831400538458 19.505564838160268 -0.2926619356703695 -1.8776925845405534 11.22711644785924 0.20369833995129935 -2.758691436281349e-33 3.1805546814635164e-15 9.939233379573489e-17 2.802034909048688 25.25578779855107 -2.1280310870035373 1.310282317442108e-07 -1.0139481928968496e-06 -1.2337970647154384 3.0370948425744886 9.090285239669823 171.75529769263443 114.90065029378911 -42.85006553926775 -172.8275193077476 -4.621392636635925e-06 -7.52017080974664e-07 20.421779222277483 0.0 -6.3611093629270335e-15 0.0 -116.68774731084575 -27.79219538841541 171.35181367852542 -1.574650949153292e-06 -2.189529637528123e-06 -29.058494683716262 -2.0872390097104326e-15 -3.1805546814635164e-15 -5.793252016190833e-32
3.827567707048729e-05 98.71027374267578 -0.0010218205861747265 -3.1397326645125063 -11.303274681296688 -13.64785315410859 0.3558888650562824 20.118392027103734 -0.9096739066752417 0.5649743100744575 9.47546586006865 -0.5011355268538175 0.0 0.0 2.0375428428125655e-15 -1.3946350800891425 19.29168244831812 -0.3034929595435623 -1.962937699113388 11.313230431853409 0.21393240479258235 0.0 0.0 9.93923337957349e-17 2.8313279636597075 25.251983801806862 -2.1939501853108947 4.906011962151082e-08 -1.6744080162782402e-06 -0.9863700133963487 2.964922203777268 8.855963569231172 171.9277197639032 115.1669737510558 -44.01617343309368 -172.60475656454977 2.3912771963645403e-06 -4.833821099089168e-06 20.7071099764273 6.3611093629270335e-15 -3.1805546814635164e-15 6.3611093629270335e-15 -116.42278456999057 -27.98013792165189 171.1911951746478 4.82282811852772e-06 -2.917475711109256e-07 -28.614250390544708 -6.46050169672277e-15 -3.1805546814635176e-15 -3.1805546814635176e-15
5.383412826631684e-06 98.71023559570312 -0.0010218764655292034 -3.088695314105501 -11.022774656275882 -13.54502150345546 0.3785729784809575 19.814223494959403 -0.9763472224653175 0.4887764144540749 9.415617264473754 -0.52259379662813 -3.975693351829396e-16 4.969616689786745e-17 4.969616689786745e-16 -1.294280039443947 19.03754495571602 -0.4016602157873317 -1.9794514990825094 11.224204170282855 0.15770888048185888 1.3901218565636485e-32 3.2054027649124505e-15 -4.969616689786745e-16 2.823455351420809 25.267759009931837 -2.283115175237692 1.638925077345749e-07 -7.858782614117689e-07 -0.8220260799919268 2.904176592585154 8.243426438508617 171.65815107663784 114.52995268479975 -43.53511182252106 -172.78419186481997 -2.43856288523749e-06 -1.3205521798786702e-06 20.5244357708574 6.3611093629270335e-15 0.0 0.0 -116.04531634975545 -27.781442893887316 171.267097881562 4.4035015778134574e-07 2.1178137868972486e-06 -28.997068182711455 2.9817700138720468e-15 -3.1805546814635164e-15 8.276074308844047e-32
-1.621081173652783e-05 98.71023559570312 -0.0010397679870948195 -3.2890975862755676 -10.87024873539114 -13.393256333338247 0.5569449751950326 19.672928929424884 -0.977753702874565 0.5172694859263093 9.503560670956041 -0.5363137864925767 3.975693351829396e-16 7.758819664541294e-33 2.236327510404035e-15 -0.8523562756144687 18.924891923131167 -0.49279895817193076 -2.1662490206860068 11.190165454567051 0.14051291389155626 1.1120974852509189e-32 -3.2054027649124505e-15 3.975693351829396e-16 3.105268722308588 25.301010215338263 -2.34085365534566 3.269204884325374e-08 -6.027499723003764e-07 -0.807198678092178 3.168517654505079 7.907131217293709 171.18959842355937 113.51686026994352 -42.02319295295499 -173.18002511465724 2.0412190853210205e-06 -1.507552299250731e-06 19.96520292274462 -6.3611093629270335e-15 -3.1805546814635168e-15 -1.7655625192200634e-31 -116.36923094452838 -27.831873418816162 171.17752852200607 2.6716821095549954e-06 1.6538810311996686e-06 -30.018537107745818 2.2860236773019026e-15 -6.344990303447103e-32 -3.1805546814635168e-15
-1.7282218323089182e-06 98.71025848388672 -0.0010590576566755772 -3.6104847758370693 -11.021481048821691 -14.001506770198404 0.5579605073750293 19.961443401055035 -0.9861598215773875 0.3003931826471811 9.468261054279663 -0.49531346489031974 -7.951386703658792e-16 2.758691436281349e-33 -3.975693351829396e-16 -0.8294061675049066 19.153239309781775 -0.5005640991105714 -2.0267318462854442 11.237854068947716 0.11314465295220047 -3.975693351829396e-16 -2.484808344893373e-17 2.3108717607508363e-15 2.9147390660234267 25.49529898487588 -2.267780907704687 -4.348085440891797e-07 -2.7726006822285523e-07 -0.937754599125123 3.430992984619484 8.008499012799376 171.293337669416 113.00133722101312 -40.69352715027391 -173.6159299298012 -2.260123511497819e-06 -6.750251163143609e-07 19.59224131334925 -6.3611093629270335e-15 3.1805546814635168e-15 -6.3611093629270335e-15 -116.33473121542517 -28.005454879383976 171.3224853764434 1.5926367108568716e-07 -1.0934313270741753e-06 -30.83059896263345 7.454425034680117e-15 0.0 0.0
-1.7325373846688308e-05 98.71026611328125 -0.0010836797300726175 -3.9420325096281035 -11.316743971351135 -14.498755260815466 0.45387103513789523 20.042022707119724 -0.8920873401821189 0.36694385293116466 9.92000681307205 -0.4836912402740404 -3.9756933518293955e-16 4.969616689786744e-17 9.939233379573488e-16 -0.8110917205944996 19.1512087399602 -0.44684038935010767 -1.927250685435109 11.758881696765611 0.12947593931249515 1.9878466759146977e-16 2.4848083448933722e-17 5.715059193254755e-16 2.770682301704358 26.10938865820106 -2.1744247954719147 -6.463679222566158e-08 -6.196819655529344e-07 -0.9186392939995726 3.504694061748946 8.137517734358667 171.19082483813725 113.3766665564712 -39.60217887514747 -173.3108444673644 2.9579308565715823e-06 1.236443525198638e-06 19.477433276895447 -6.3611093629270335e-15 6.3611093629270335e-15 3.531125038440127e-31 -117.29932190608064 -29.627669073105515 170.54174145370732 3.3620775800437513e-06 -4.676653904493992e-06 -32.1890781573051 1.888454342118963e-15 -3.1805546814635168e-15 5.241513728934563e-32
